<?xml version="1.0" encoding="UTF-8" standalone="no"?>
<!-- Created with Inkscape (http://www.inkscape.org/) -->

<svg
   xmlns:dc="http://purl.org/dc/elements/1.1/"
   xmlns:cc="http://creativecommons.org/ns#"
   xmlns:rdf="http://www.w3.org/1999/02/22-rdf-syntax-ns#"
   xmlns:svg="http://www.w3.org/2000/svg"
   xmlns="http://www.w3.org/2000/svg"
   xmlns:sodipodi="http://sodipodi.sourceforge.net/DTD/sodipodi-0.dtd"
   xmlns:inkscape="http://www.inkscape.org/namespaces/inkscape"
   width="210mm"
   height="297mm"
   viewBox="0 0 210 297"
   version="1.1"
   id="svg1695"
   inkscape:version="0.92.3 (2405546, 2018-03-11)"
   sodipodi:docname="acrylic-spacer.svg">
  <defs
     id="defs1689" />
  <sodipodi:namedview
     id="base"
     pagecolor="#ffffff"
     bordercolor="#666666"
     borderopacity="1.0"
     inkscape:pageopacity="0.0"
     inkscape:pageshadow="2"
     inkscape:zoom="2.8"
     inkscape:cx="360.19798"
     inkscape:cy="551.98489"
     inkscape:document-units="mm"
     inkscape:current-layer="layer1"
     showgrid="false"
     inkscape:window-width="1280"
     inkscape:window-height="961"
     inkscape:window-x="-4"
     inkscape:window-y="-4"
     inkscape:window-maximized="1" />
  <metadata
     id="metadata1692">
    <rdf:RDF>
      <cc:Work
         rdf:about="">
        <dc:format>image/svg+xml</dc:format>
        <dc:type
           rdf:resource="http://purl.org/dc/dcmitype/StillImage" />
        <dc:title />
      </cc:Work>
    </rdf:RDF>
  </metadata>
  <g
     inkscape:label="Layer 1"
     inkscape:groupmode="layer"
     id="layer1">
    <path
       style="display:inline;fill:none;fill-opacity:1;stroke:#ff0000;stroke-width:0.1;stroke-miterlimit:4;stroke-dasharray:none;stroke-opacity:1"
       d="m 93.359226,63.905531 -0.38593,0.0098 -0.38087,0.02897 -0.37533,0.0477 -0.36932,0.06596 -0.36284,0.08375 -0.35589,0.101067 -0.34847,0.117914 -0.34058,0.134289 -0.3322,0.150193 -0.32338,0.165626 -0.31406,0.180587 -0.30429,0.195078 -0.29404,0.209097 -0.28331,0.222645 -0.27213,0.235721 -0.26046,0.248328 -0.24833,0.260462 -0.23572,0.272125 -0.22264,0.283317 -0.2091,0.294037 -0.19508,0.304288 -0.18059,0.314066 -0.16562,0.323373 -0.15019,0.332209 -0.13429,0.340574 -0.11792,0.348468 -0.10107,0.35589 -0.0838,0.362841 -0.066,0.369321 -0.0477,0.375331 -0.029,0.380868 -0.01,0.385934 0.0165,0.475649 0.0465,0.473176 0.0763,0.469277 0.10606,0.463956 -0.5041,-0.146211 -0.5089,-0.127397 -0.51334,-0.1079 -0.51742,-0.08772 -0.52114,-0.06685 -0.52449,-0.0453 -0.5275,-0.02307 -0.53014,-2e-4 -0.51314,0.0063 -0.51091,0.02737 -0.50809,0.04807 -0.50468,0.0684 -0.50068,0.08836 -0.49611,0.107936 -0.49095,0.12714 -0.4852,0.14597 -0.47887,0.164426 -0.47196,0.182505 -0.46445,0.200211 -0.45637,0.21754 -0.44771,0.234495 -0.43844,0.251076 -0.42861,0.267281 -0.41819,0.283111 -0.40717,0.298566 -0.39559,0.313646 -0.3834,0.328352 -0.37065,0.342682 -0.3573,0.356637 -0.34336,0.370218 -0.32885,0.383423 -0.31375,0.396254 -0.29806,0.408709 -0.28179,0.42079 -0.26494,0.432495 -0.2475,0.443826 -0.22947,0.454781 -0.21087,0.465363 -0.19167,0.475569 -0.17189,0.4854 -0.26296,0.81787 -0.21858,0.82872 -0.17448,0.83758 -0.13065,0.84448 -0.0871,0.8494 -0.0438,0.85233 -7e-4,0.85331 0.042,0.85229 0.0845,0.8493 0.12672,0.84435 0.16868,0.8374 0.21036,0.8285 0.25177,0.8176 0.29291,0.80473 0.3338,0.7899 0.3744,0.77308 -0.36109,1.04327 -0.31848,1.07988 -0.27073,1.10926 -0.21784,1.13141 -0.0875,0.57174 -0.0723,0.574578 -0.0565,0.57649 -0.0401,0.57751 -0.0231,0.57762 -0.005,0.57682 0.013,0.57513 0.032,0.57253 0.0516,0.56903 0.0719,0.56461 0.0928,0.5593 0.11441,0.55308 0.13662,0.54596 0.15946,0.53794 0.18295,0.529 0.20708,0.51917 0.23185,0.50843 0.25727,0.49679 0.28331,0.48424 0.31002,0.47079 0.33735,0.45643 0.36533,0.44117 0.39395,0.42501 0.42321,0.40794 0.31241,0.22973 0.31907,0.21253 0.32538,0.19571 0.33132,0.17926 0.33689,0.16319 0.34212,0.14748 0.34697,0.13214 0.35146,0.11717 0.71494,0.19095 0.72856,0.13553 0.73929,0.0831 0.74709,0.0336 0.75202,-0.0129 0.75403,-0.0564 0.75316,-0.097 0.74937,-0.13459 0.74269,-0.16921 0.73311,-0.20088 0.72062,-0.22957 0.70525,-0.2553 v 2.73988 h -8.55141 l -0.54188,0.0272 -0.52589,0.0798 -0.50729,0.12982 -0.48606,0.17721 -0.46221,0.22198 -0.43576,0.26415 -0.40667,0.30369 -0.37499,0.34062 -0.34066,0.37493 -0.30374,0.40663 -0.26419,0.43571 -0.22203,0.46218 -0.17724,0.48603 -0.12984,0.50726 -0.0798,0.52587 -0.0272,0.54188 v 85.31259 l 0.0272,0.54188 0.0798,0.52587 0.12984,0.50726 0.17724,0.48602 0.22203,0.46218 0.26419,0.43571 0.30374,0.40663 0.34066,0.37493 0.37499,0.34062 0.40667,0.30369 0.43576,0.26414 0.46221,0.22199 0.48606,0.17721 0.50729,0.12981 0.52589,0.0798 0.54188,0.0272 h 35.359584 l 0.54189,-0.0272 0.52589,-0.0798 0.50728,-0.12981 0.48606,-0.17721 0.46222,-0.22199 0.43576,-0.26414 0.40667,-0.30369 0.37499,-0.34062 0.34067,-0.37493 0.30373,-0.40663 0.26419,-0.43571 0.22203,-0.46218 0.17724,-0.48602 0.12985,-0.50726 0.0798,-0.52587 0.0272,-0.54188 v -85.31263 l -0.0272,-0.54188 -0.0798,-0.52587 -0.12985,-0.50726 -0.17724,-0.48603 -0.22203,-0.46217 -0.26419,-0.43571 -0.30373,-0.40664 -0.34067,-0.37493 -0.37499,-0.34062 -0.40667,-0.30369 -0.43576,-0.26415 -0.46222,-0.22198 -0.48606,-0.17721 -0.50728,-0.12982 -0.52589,-0.0798 -0.54189,-0.0272 h -8.55192 v -4.57646 l 1.80188,-1.82455 1.81467,-1.81651 1.80534,-1.82552 1.77392,-1.85159 0.86826,-0.9409 0.85212,-0.9538 0.83321,-0.96886 0.81153,-0.986018 0.7871,-1.00532 0.75991,-1.02677 0.72994,-1.05033 0.69721,-1.07603 0.33802,-0.64819 0.30857,-0.66617 0.27893,-0.6824 0.24909,-0.69687 0.21905,-0.70958 0.18883,-0.72052 0.15841,-0.72972 0.12779,-0.73716 0.097,-0.74283 0.066,-0.74676 0.0348,-0.74891 0.003,-0.74933 -0.0282,-0.74796 -0.06,-0.74486 -0.092,-0.73999 -0.12412,-0.73336 -0.15649,-0.72498 -0.18906,-0.71484 -0.2218,-0.70293 -0.25475,-0.68928 -0.2879,-0.67387 -0.32123,-0.656691 -0.35476,-0.637762 -0.38848,-0.617072 -0.42241,-0.594627 -0.45652,-0.570423 -0.49082,-0.544461 -0.52533,-0.516742 -0.56003,-0.487265 -0.59491,-0.45603 -0.63001,-0.423037 -0.66528,-0.388287 -0.61795,-0.314033 -0.63126,-0.28094 -0.64306,-0.247931 -0.65339,-0.215002 -0.66222,-0.182154 -0.66957,-0.149389 -0.67544,-0.116705 -0.67982,-0.0841 -0.68271,-0.05158 -0.68412,-0.01914 -0.68403,0.01322 -0.68247,0.04549 -0.67942,0.07769 -0.67488,0.109802 -0.66885,0.141834 -0.66134,0.173784 0.10369,-0.456166 0.075,-0.461293 0.0461,-0.465067 0.0171,-0.467491 -0.01,-0.385953 -0.029,-0.380885 -0.0477,-0.375347 -0.066,-0.369337 -0.0838,-0.362856 -0.10108,-0.355904 -0.11792,-0.348481 -0.1343,-0.340586 -0.15021,-0.33222 -0.165644,-0.323383 -0.1806,-0.314075 -0.19509,-0.304294 -0.20912,-0.294045 -0.22266,-0.283322 -0.23574,-0.272128 -0.24834,-0.260464 -0.26049,-0.248329 -0.27214,-0.235721 -0.28334,-0.222643 -0.29406,-0.209094 -0.30429,-0.195074 -0.31408,-0.18058 -0.3234,-0.165618 -0.33223,-0.150183 -0.34059,-0.134278 -0.34849,-0.117901 -0.35591,-0.101052 -0.36287,-0.08373 -0.36934,-0.06594 -0.37535,-0.04768 -0.38089,-0.02895 -0.38595,-0.0097 v 0"
       id="path914"
       inkscape:connector-curvature="0" />
    <path
       style="opacity:1;fill:none;fill-opacity:1;stroke:#ff0000;stroke-width:0.37795275;stroke-miterlimit:4;stroke-dasharray:none;stroke-opacity:1"
       d="m 297.58203,485.56976 0,224.83063 h 11.50195 v 67.15144 h 87.53907 V 710.40039 H 408.125 l 0,-224.83063 z"
       transform="scale(0.26458333)"
       id="path2256"
       inkscape:connector-curvature="0"
       sodipodi:nodetypes="ccccccccc" />
    <rect
       style="opacity:1;fill:none;fill-opacity:1;stroke:#ff0000;stroke-width:0.1;stroke-miterlimit:4;stroke-dasharray:none;stroke-opacity:1"
       id="rect19341"
       width="3.0444956"
       height="4.9018755"
       x="70.955757"
       y="122.01582" />
    <rect
       style="opacity:1;fill:none;fill-opacity:1;stroke:#ff0000;stroke-width:0.11187775;stroke-miterlimit:4;stroke-dasharray:none;stroke-opacity:1"
       id="rect19341-9"
       width="3.0326178"
       height="6.1595278"
       x="112.57438"
       y="122.02177" />
    <rect
       style="opacity:1;fill:none;fill-opacity:1;stroke:#ff0000;stroke-width:0.1;stroke-miterlimit:4;stroke-dasharray:none;stroke-opacity:1"
       id="rect19341-5"
       width="3.0444956"
       height="4.9018755"
       x="71.167297"
       y="190.64812" />
    <rect
       style="opacity:1;fill:none;fill-opacity:1;stroke:#ff0000;stroke-width:0.1;stroke-miterlimit:4;stroke-dasharray:none;stroke-opacity:1"
       id="rect19341-91"
       width="3.0444956"
       height="4.9018755"
       x="112.57932"
       y="190.64812" />
    <path
       style="fill:#000000;fill-opacity:0;stroke:#ff0000;stroke-width:0.10000005;stroke-linecap:round;stroke-linejoin:round;stroke-opacity:1"
       d="m 72.7863,76.384581 -0.35814,0.35814"
       id="path32857" />
    <path
       style="fill:#000000;fill-opacity:0;stroke:#ff0000;stroke-width:0.10000005;stroke-linecap:round;stroke-linejoin:round;stroke-opacity:1"
       d="m 72.42816,76.742721 -0.3429,0.3683"
       id="path32855" />
    <path
       style="fill:#000000;fill-opacity:0;stroke:#ff0000;stroke-width:0.10000005;stroke-linecap:round;stroke-linejoin:round;stroke-opacity:1"
       d="m 72.08526,77.111021 -0.3302,0.38354"
       id="path32853" />
    <path
       style="fill:#000000;fill-opacity:0;stroke:#ff0000;stroke-width:0.10000005;stroke-linecap:round;stroke-linejoin:round;stroke-opacity:1"
       d="m 71.75506,77.494561 -0.31242,0.39624"
       id="path32851" />
    <path
       style="fill:#000000;fill-opacity:0;stroke:#ff0000;stroke-width:0.10000005;stroke-linecap:round;stroke-linejoin:round;stroke-opacity:1"
       d="m 71.44264,77.890801 -0.29972,0.40894"
       id="path32849" />
    <path
       id="path22453"
       style="fill:#000000;fill-opacity:0;stroke:#ff0000;stroke-width:0.10000005;stroke-linecap:round;stroke-linejoin:round;stroke-opacity:1"
       d="m 88.38444,71.916721 -0.0279,-0.51308 -4e-5,0 0.0279,-0.51054 h 4e-5 l 0.0737,-0.4953 h -4e-5 l 0.12446,-0.48006 v 0 l 0.16764,-0.45974 v 0 l 0.21082,-0.43688 h 0 l 0.25146,-0.41148 h 0 l 0.28702,-0.38608 v 0 l 0.32258,-0.3556 v 0 l 0.3556,-0.32258 h 0 l 0.38354,-0.28702 h 0 l 0.41402,-0.25146 v 0 l 0.43688,-0.21082 v 0 l 0.4572,-0.16764 v 0 l 0.48006,-0.12192 h 0 l 0.49784,-0.0762 v 0 l 0.51054,-0.0254 h 0 l 0.51054,0.0254 v 0 l 0.49784,0.0762 v 0 l 0.47752,0.12192 v 0 l 0.45974,0.16764 v 0 l 0.43688,0.21082 v 0 l 0.41148,0.25146 v 0 l 0.38608,0.28702 v 0 l 0.3556,0.32258 v 0 l 0.32258,0.3556 v 0 l 0.28702,0.38608 h 0 l 0.25146,0.41148 h 0 l 0.21082,0.43688 v 0 l 0.16764,0.45974 h 0 l 0.12192,0.48006 v 0 l 0.0762,0.4953 v 0 l 0.0254,0.51054 v 0 l -0.0254,0.51308 v 0 l -0.0762,0.4953 v 0 l -0.12192,0.48006 h 0 l -0.16764,0.45974 v 0 l -0.21082,0.43688 h 0 l -0.25146,0.41148 h 0 l -0.28702,0.38354 v 0 l -0.32258,0.3556 v 0 l -0.3556,0.32258 v 0 l -0.38608,0.28956 v 0 l -0.41148,0.24892 v 0 l -0.43688,0.21082 v 0 l -0.45974,0.16764 v 0 l -0.47752,0.12446 v 0 l -0.49784,0.0762 v 0 l -0.51054,0.0254 h 0 l -0.51054,-0.0254 v 0 l -0.49784,-0.0762 h 0 l -0.48006,-0.12446 v 0 l -0.4572,-0.16764 v 0 l -0.43688,-0.21082 v 0 l -0.41402,-0.24892 0,0 -0.38354,-0.28956 h 0 l -0.3556,-0.32258 v 0 l -0.32258,-0.3556 v 0 l -0.28702,-0.38354 h 0 l -0.25146,-0.41148 h 0 l -0.21082,-0.43942 v 0 l -0.16764,-0.4572 v 0 l -0.12446,-0.48006 v 0 l -0.0737,-0.4953 z"
       inkscape:connector-curvature="0"
       sodipodi:nodetypes="ccccccccccccccccccccccccccccccccccccccccccccccccccccccccccccccccccccccccccccccccccccccccccccccccccccccccccccccccccccccccccccccccc" />
    <g
       style="fill:#000000;fill-opacity:0;stroke:#000000;stroke-width:39.37009811;stroke-linecap:round;stroke-linejoin:round;stroke-opacity:1"
       id="g22455"
       transform="matrix(0.00254,0,0,0.00254,14.989124,41.100283)" />
    <g
       style="fill:#000000;fill-opacity:0;stroke:#000000;stroke-width:39.37009811;stroke-linecap:round;stroke-linejoin:round;stroke-opacity:1"
       id="g22457"
       transform="matrix(0.00254,0,0,0.00254,14.989124,41.100283)" />
    <g
       style="fill:#000000;fill-opacity:0;stroke:#000000;stroke-width:39.37009811;stroke-linecap:round;stroke-linejoin:round;stroke-opacity:1"
       id="g22459"
       transform="matrix(0.00254,0,0,0.00254,14.989124,41.100283)" />
    <g
       style="fill:#000000;fill-opacity:0;stroke:#000000;stroke-width:39.37009811;stroke-linecap:round;stroke-linejoin:round;stroke-opacity:1"
       id="g22461"
       transform="matrix(0.00254,0,0,0.00254,14.989124,41.100283)" />
    <g
       style="fill:#000000;fill-opacity:0;stroke:#000000;stroke-width:39.37009811;stroke-linecap:round;stroke-linejoin:round;stroke-opacity:1"
       id="g22463"
       transform="matrix(0.00254,0,0,0.00254,14.989124,41.100283)" />
    <g
       style="fill:#000000;fill-opacity:0;stroke:#000000;stroke-width:39.37009811;stroke-linecap:round;stroke-linejoin:round;stroke-opacity:1"
       id="g22465"
       transform="matrix(0.00254,0,0,0.00254,14.989124,41.100283)" />
    <g
       style="fill:#000000;fill-opacity:0;stroke:#000000;stroke-width:39.37009811;stroke-linecap:round;stroke-linejoin:round;stroke-opacity:1"
       id="g22467"
       transform="matrix(0.00254,0,0,0.00254,14.989124,41.100283)" />
    <g
       style="fill:#000000;fill-opacity:0;stroke:#000000;stroke-width:39.37009811;stroke-linecap:round;stroke-linejoin:round;stroke-opacity:1"
       id="g22469"
       transform="matrix(0.00254,0,0,0.00254,14.989124,41.100283)" />
    <g
       style="fill:#000000;fill-opacity:0;stroke:#000000;stroke-width:39.37009811;stroke-linecap:round;stroke-linejoin:round;stroke-opacity:1"
       id="g22471"
       transform="matrix(0.00254,0,0,0.00254,14.989124,41.100283)" />
    <g
       style="fill:#000000;fill-opacity:0;stroke:#000000;stroke-width:39.37009811;stroke-linecap:round;stroke-linejoin:round;stroke-opacity:1"
       id="g22473"
       transform="matrix(0.00254,0,0,0.00254,14.989124,41.100283)" />
    <g
       style="fill:#000000;fill-opacity:0;stroke:#000000;stroke-width:39.37009811;stroke-linecap:round;stroke-linejoin:round;stroke-opacity:1"
       id="g22475"
       transform="matrix(0.00254,0,0,0.00254,14.989124,41.100283)" />
    <g
       style="fill:#000000;fill-opacity:0;stroke:#000000;stroke-width:39.37009811;stroke-linecap:round;stroke-linejoin:round;stroke-opacity:1"
       id="g22477"
       transform="matrix(0.00254,0,0,0.00254,14.989124,41.100283)" />
    <g
       style="fill:#000000;fill-opacity:0;stroke:#000000;stroke-width:39.37009811;stroke-linecap:round;stroke-linejoin:round;stroke-opacity:1"
       id="g22479"
       transform="matrix(0.00254,0,0,0.00254,14.989124,41.100283)" />
    <g
       style="fill:#000000;fill-opacity:0;stroke:#000000;stroke-width:39.37009811;stroke-linecap:round;stroke-linejoin:round;stroke-opacity:1"
       id="g22481"
       transform="matrix(0.00254,0,0,0.00254,14.989124,41.100283)" />
    <g
       style="fill:#000000;fill-opacity:0;stroke:#000000;stroke-width:39.37009811;stroke-linecap:round;stroke-linejoin:round;stroke-opacity:1"
       id="g22483"
       transform="matrix(0.00254,0,0,0.00254,14.989124,41.100283)" />
    <g
       style="fill:#000000;fill-opacity:0;stroke:#000000;stroke-width:39.37009811;stroke-linecap:round;stroke-linejoin:round;stroke-opacity:1"
       id="g22485"
       transform="matrix(0.00254,0,0,0.00254,14.989124,41.100283)" />
    <g
       style="fill:#000000;fill-opacity:0;stroke:#000000;stroke-width:39.37009811;stroke-linecap:round;stroke-linejoin:round;stroke-opacity:1"
       id="g22487"
       transform="matrix(0.00254,0,0,0.00254,14.989124,41.100283)" />
    <g
       style="fill:#000000;fill-opacity:0;stroke:#000000;stroke-width:39.37009811;stroke-linecap:round;stroke-linejoin:round;stroke-opacity:1"
       id="g22489"
       transform="matrix(0.00254,0,0,0.00254,14.989124,41.100283)" />
    <g
       style="fill:#000000;fill-opacity:0;stroke:#000000;stroke-width:39.37009811;stroke-linecap:round;stroke-linejoin:round;stroke-opacity:1"
       id="g22491"
       transform="matrix(0.00254,0,0,0.00254,14.989124,41.100283)" />
    <g
       style="fill:#000000;fill-opacity:0;stroke:#000000;stroke-width:39.37009811;stroke-linecap:round;stroke-linejoin:round;stroke-opacity:1"
       id="g22493"
       transform="matrix(0.00254,0,0,0.00254,14.989124,41.100283)" />
    <g
       style="fill:#000000;fill-opacity:0;stroke:#000000;stroke-width:39.37009811;stroke-linecap:round;stroke-linejoin:round;stroke-opacity:1"
       id="g22495"
       transform="matrix(0.00254,0,0,0.00254,14.989124,41.100283)" />
    <g
       style="fill:#000000;fill-opacity:0;stroke:#000000;stroke-width:39.37009811;stroke-linecap:round;stroke-linejoin:round;stroke-opacity:1"
       id="g22497"
       transform="matrix(0.00254,0,0,0.00254,14.989124,41.100283)" />
    <g
       style="fill:#000000;fill-opacity:0;stroke:#000000;stroke-width:39.37009811;stroke-linecap:round;stroke-linejoin:round;stroke-opacity:1"
       id="g22499"
       transform="matrix(0.00254,0,0,0.00254,14.989124,41.100283)" />
    <g
       style="fill:#000000;fill-opacity:0;stroke:#000000;stroke-width:39.37009811;stroke-linecap:round;stroke-linejoin:round;stroke-opacity:1"
       id="g22501"
       transform="matrix(0.00254,0,0,0.00254,14.989124,41.100283)" />
    <g
       style="fill:#000000;fill-opacity:0;stroke:#000000;stroke-width:39.37009811;stroke-linecap:round;stroke-linejoin:round;stroke-opacity:1"
       id="g22503"
       transform="matrix(0.00254,0,0,0.00254,14.989124,41.100283)" />
    <g
       style="fill:#000000;fill-opacity:0;stroke:#000000;stroke-width:39.37009811;stroke-linecap:round;stroke-linejoin:round;stroke-opacity:1"
       id="g22505"
       transform="matrix(0.00254,0,0,0.00254,14.989124,41.100283)" />
    <g
       style="fill:#000000;fill-opacity:0;stroke:#000000;stroke-width:39.37009811;stroke-linecap:round;stroke-linejoin:round;stroke-opacity:1"
       id="g22507"
       transform="matrix(0.00254,0,0,0.00254,14.989124,41.100283)" />
    <g
       style="fill:#000000;fill-opacity:0;stroke:#000000;stroke-width:39.37009811;stroke-linecap:round;stroke-linejoin:round;stroke-opacity:1"
       id="g22509"
       transform="matrix(0.00254,0,0,0.00254,14.989124,41.100283)" />
    <g
       style="fill:#000000;fill-opacity:0;stroke:#000000;stroke-width:39.37009811;stroke-linecap:round;stroke-linejoin:round;stroke-opacity:1"
       id="g22511"
       transform="matrix(0.00254,0,0,0.00254,14.989124,41.100283)" />
    <g
       style="fill:#000000;fill-opacity:0;stroke:#000000;stroke-width:39.37009811;stroke-linecap:round;stroke-linejoin:round;stroke-opacity:1"
       id="g22513"
       transform="matrix(0.00254,0,0,0.00254,14.989124,41.100283)" />
    <g
       style="fill:#000000;fill-opacity:0;stroke:#000000;stroke-width:39.37009811;stroke-linecap:round;stroke-linejoin:round;stroke-opacity:1"
       id="g22515"
       transform="matrix(0.00254,0,0,0.00254,14.989124,41.100283)" />
    <g
       style="fill:#000000;fill-opacity:0;stroke:#000000;stroke-width:39.37009811;stroke-linecap:round;stroke-linejoin:round;stroke-opacity:1"
       id="g22517"
       transform="matrix(0.00254,0,0,0.00254,14.989124,41.100283)" />
    <g
       style="fill:#000000;fill-opacity:0;stroke:#000000;stroke-width:39.37009811;stroke-linecap:round;stroke-linejoin:round;stroke-opacity:1"
       id="g22519"
       transform="matrix(0.00254,0,0,0.00254,14.989124,41.100283)" />
    <g
       style="fill:#000000;fill-opacity:0;stroke:#000000;stroke-width:39.37009811;stroke-linecap:round;stroke-linejoin:round;stroke-opacity:1"
       id="g22521"
       transform="matrix(0.00254,0,0,0.00254,14.989124,41.100283)" />
    <g
       style="fill:#000000;fill-opacity:0;stroke:#000000;stroke-width:39.37009811;stroke-linecap:round;stroke-linejoin:round;stroke-opacity:1"
       id="g22523"
       transform="matrix(0.00254,0,0,0.00254,14.989124,41.100283)" />
    <g
       style="fill:#000000;fill-opacity:0;stroke:#000000;stroke-width:39.37009811;stroke-linecap:round;stroke-linejoin:round;stroke-opacity:1"
       id="g22525"
       transform="matrix(0.00254,0,0,0.00254,14.989124,41.100283)" />
    <g
       style="fill:#000000;fill-opacity:0;stroke:#000000;stroke-width:39.37009811;stroke-linecap:round;stroke-linejoin:round;stroke-opacity:1"
       id="g22527"
       transform="matrix(0.00254,0,0,0.00254,14.989124,41.100283)" />
    <g
       style="fill:#000000;fill-opacity:0;stroke:#000000;stroke-width:39.37009811;stroke-linecap:round;stroke-linejoin:round;stroke-opacity:1"
       id="g22529"
       transform="matrix(0.00254,0,0,0.00254,14.989124,41.100283)" />
    <g
       style="fill:#000000;fill-opacity:0;stroke:#000000;stroke-width:39.37009811;stroke-linecap:round;stroke-linejoin:round;stroke-opacity:1"
       id="g22531"
       transform="matrix(0.00254,0,0,0.00254,14.989124,41.100283)" />
    <g
       style="fill:#000000;fill-opacity:0;stroke:#000000;stroke-width:39.37009811;stroke-linecap:round;stroke-linejoin:round;stroke-opacity:1"
       id="g22533"
       transform="matrix(0.00254,0,0,0.00254,14.989124,41.100283)" />
    <g
       style="fill:#000000;fill-opacity:0;stroke:#000000;stroke-width:39.37009811;stroke-linecap:round;stroke-linejoin:round;stroke-opacity:1"
       id="g22535"
       transform="matrix(0.00254,0,0,0.00254,14.989124,41.100283)" />
    <g
       style="fill:#000000;fill-opacity:0;stroke:#000000;stroke-width:39.37009811;stroke-linecap:round;stroke-linejoin:round;stroke-opacity:1"
       id="g22537"
       transform="matrix(0.00254,0,0,0.00254,14.989124,41.100283)" />
    <g
       style="fill:#000000;fill-opacity:0;stroke:#000000;stroke-width:39.37009811;stroke-linecap:round;stroke-linejoin:round;stroke-opacity:1"
       id="g22539"
       transform="matrix(0.00254,0,0,0.00254,14.989124,41.100283)" />
    <g
       style="fill:#000000;fill-opacity:0;stroke:#000000;stroke-width:39.37009811;stroke-linecap:round;stroke-linejoin:round;stroke-opacity:1"
       id="g22541"
       transform="matrix(0.00254,0,0,0.00254,14.989124,41.100283)" />
    <g
       style="fill:#000000;fill-opacity:0;stroke:#000000;stroke-width:39.37009811;stroke-linecap:round;stroke-linejoin:round;stroke-opacity:1"
       id="g22543"
       transform="matrix(0.00254,0,0,0.00254,14.989124,41.100283)" />
    <g
       style="fill:#000000;fill-opacity:0;stroke:#000000;stroke-width:39.37009811;stroke-linecap:round;stroke-linejoin:round;stroke-opacity:1"
       id="g22545"
       transform="matrix(0.00254,0,0,0.00254,14.989124,41.100283)" />
    <g
       style="fill:#000000;fill-opacity:0;stroke:#000000;stroke-width:39.37009811;stroke-linecap:round;stroke-linejoin:round;stroke-opacity:1"
       id="g22547"
       transform="matrix(0.00254,0,0,0.00254,14.989124,41.100283)" />
    <g
       style="fill:#000000;fill-opacity:0;stroke:#000000;stroke-width:39.37009811;stroke-linecap:round;stroke-linejoin:round;stroke-opacity:1"
       id="g22549"
       transform="matrix(0.00254,0,0,0.00254,14.989124,41.100283)" />
    <g
       style="fill:#000000;fill-opacity:0;stroke:#000000;stroke-width:39.37009811;stroke-linecap:round;stroke-linejoin:round;stroke-opacity:1"
       id="g22551"
       transform="matrix(0.00254,0,0,0.00254,14.989124,41.100283)" />
    <g
       style="fill:#000000;fill-opacity:0;stroke:#000000;stroke-width:39.37009811;stroke-linecap:round;stroke-linejoin:round;stroke-opacity:1"
       id="g22553"
       transform="matrix(0.00254,0,0,0.00254,14.989124,41.100283)" />
    <g
       style="fill:#000000;fill-opacity:0;stroke:#000000;stroke-width:39.37009811;stroke-linecap:round;stroke-linejoin:round;stroke-opacity:1"
       id="g22555"
       transform="matrix(0.00254,0,0,0.00254,14.989124,41.100283)" />
    <g
       style="fill:#000000;fill-opacity:0;stroke:#000000;stroke-width:39.37009811;stroke-linecap:round;stroke-linejoin:round;stroke-opacity:1"
       id="g22557"
       transform="matrix(0.00254,0,0,0.00254,14.989124,41.100283)" />
    <g
       style="fill:#000000;fill-opacity:0;stroke:#000000;stroke-width:39.37009811;stroke-linecap:round;stroke-linejoin:round;stroke-opacity:1"
       id="g22559"
       transform="matrix(0.00254,0,0,0.00254,14.989124,41.100283)" />
    <g
       style="fill:#000000;fill-opacity:0;stroke:#000000;stroke-width:39.37009811;stroke-linecap:round;stroke-linejoin:round;stroke-opacity:1"
       id="g22561"
       transform="matrix(0.00254,0,0,0.00254,14.989124,41.100283)" />
    <g
       style="fill:#000000;fill-opacity:0;stroke:#000000;stroke-width:39.37009811;stroke-linecap:round;stroke-linejoin:round;stroke-opacity:1"
       id="g22563"
       transform="matrix(0.00254,0,0,0.00254,14.989124,41.100283)" />
    <g
       style="fill:#000000;fill-opacity:0;stroke:#000000;stroke-width:39.37009811;stroke-linecap:round;stroke-linejoin:round;stroke-opacity:1"
       id="g22565"
       transform="matrix(0.00254,0,0,0.00254,14.989124,41.100283)" />
    <g
       style="fill:#000000;fill-opacity:0;stroke:#000000;stroke-width:39.37009811;stroke-linecap:round;stroke-linejoin:round;stroke-opacity:1"
       id="g22567"
       transform="matrix(0.00254,0,0,0.00254,14.989124,41.100283)" />
    <g
       style="fill:#000000;fill-opacity:0;stroke:#000000;stroke-width:39.37009811;stroke-linecap:round;stroke-linejoin:round;stroke-opacity:1"
       id="g22569"
       transform="matrix(0.00254,0,0,0.00254,14.989124,41.100283)" />
    <g
       style="fill:#000000;fill-opacity:0;stroke:#000000;stroke-width:39.37009811;stroke-linecap:round;stroke-linejoin:round;stroke-opacity:1"
       id="g22571"
       transform="matrix(0.00254,0,0,0.00254,14.989124,41.100283)" />
    <g
       style="fill:#000000;fill-opacity:0;stroke:#000000;stroke-width:39.37009811;stroke-linecap:round;stroke-linejoin:round;stroke-opacity:1"
       id="g22573"
       transform="matrix(0.00254,0,0,0.00254,14.989124,41.100283)" />
    <g
       style="fill:#000000;fill-opacity:0;stroke:#000000;stroke-width:39.37009811;stroke-linecap:round;stroke-linejoin:round;stroke-opacity:1"
       id="g22575"
       transform="matrix(0.00254,0,0,0.00254,14.989124,41.100283)" />
    <g
       style="fill:#000000;fill-opacity:0;stroke:#000000;stroke-width:39.37009811;stroke-linecap:round;stroke-linejoin:round;stroke-opacity:1"
       id="g22577"
       transform="matrix(0.00254,0,0,0.00254,14.989124,41.100283)" />
  </g>
</svg>
