<?xml version="1.0" encoding="UTF-8" standalone="no"?>
<!-- Created with Inkscape (http://www.inkscape.org/) -->

<svg
   xmlns:dc="http://purl.org/dc/elements/1.1/"
   xmlns:cc="http://creativecommons.org/ns#"
   xmlns:rdf="http://www.w3.org/1999/02/22-rdf-syntax-ns#"
   xmlns:svg="http://www.w3.org/2000/svg"
   xmlns="http://www.w3.org/2000/svg"
   xmlns:sodipodi="http://sodipodi.sourceforge.net/DTD/sodipodi-0.dtd"
   xmlns:inkscape="http://www.inkscape.org/namespaces/inkscape"
   inkscape:version="0.92.4 (5da689c313, 2019-01-14)"
   sodipodi:docname="board-outline.svg"
   id="svg8"
   version="1.1"
   viewBox="0 0 49.563193 147.27699"
   height="147.27699mm"
   width="49.563194mm">
  <defs
     id="defs2" />
  <sodipodi:namedview
     id="base"
     pagecolor="#ffffff"
     bordercolor="#666666"
     borderopacity="1.0"
     inkscape:pageopacity="0.0"
     inkscape:pageshadow="2"
     inkscape:zoom="2.8284271"
     inkscape:cx="141.29319"
     inkscape:cy="292.3901"
     inkscape:document-units="mm"
     inkscape:current-layer="layer5"
     showgrid="false"
     inkscape:window-width="1143"
     inkscape:window-height="524"
     inkscape:window-x="2079"
     inkscape:window-y="905"
     inkscape:window-maximized="0"
     fit-margin-top="0"
     fit-margin-left="0"
     fit-margin-right="0"
     fit-margin-bottom="0" />
  <metadata
     id="metadata5">
    <rdf:RDF>
      <cc:Work
         rdf:about="">
        <dc:format>image/svg+xml</dc:format>
        <dc:type
           rdf:resource="http://purl.org/dc/dcmitype/StillImage" />
        <dc:title></dc:title>
      </cc:Work>
    </rdf:RDF>
  </metadata>
  <g
     inkscape:groupmode="layer"
     id="layer4"
     inkscape:label="Edge.Cuts"
     style="display:inline"
     transform="translate(-277.38999,63.387756)">
    <path
       style="display:inline;fill:none;fill-opacity:1;stroke:#000000;stroke-width:0.1;stroke-miterlimit:4;stroke-dasharray:none;stroke-opacity:1"
       d="m 302.1707,-63.337772 -0.38593,0.0098 -0.38087,0.02897 -0.37533,0.0477 -0.36932,0.06596 -0.36284,0.08375 -0.35589,0.101067 -0.34847,0.117914 -0.34058,0.134289 -0.3322,0.150193 -0.32338,0.165626 -0.31406,0.180587 -0.30429,0.195078 -0.29404,0.209097 -0.28331,0.222645 -0.27213,0.235721 -0.26046,0.248328 -0.24833,0.260462 -0.23572,0.272125 -0.22264,0.283317 -0.2091,0.294037 -0.19508,0.304288 -0.18059,0.314066 -0.16562,0.323373 -0.15019,0.332209 -0.13429,0.340574 -0.11792,0.348468 -0.10107,0.35589 -0.0838,0.362841 -0.066,0.369321 -0.0477,0.375331 -0.029,0.380868 -0.01,0.385934 0.0165,0.475649 0.0465,0.473176 0.0763,0.469277 0.10606,0.463956 -0.5041,-0.146211 -0.5089,-0.127397 -0.51334,-0.1079 -0.51742,-0.08772 -0.52114,-0.06685 -0.52449,-0.0453 -0.5275,-0.02307 -0.53014,-2e-4 -0.51314,0.0063 -0.51091,0.02737 -0.50809,0.04807 -0.50468,0.0684 -0.50068,0.08836 -0.49611,0.107936 -0.49095,0.12714 -0.4852,0.14597 -0.47887,0.164426 -0.47196,0.182505 -0.46445,0.200211 -0.45637,0.21754 -0.44771,0.234495 -0.43844,0.251076 -0.42861,0.267281 -0.41819,0.283111 -0.40717,0.298566 -0.39559,0.313646 -0.3834,0.328352 -0.37065,0.342682 -0.3573,0.356637 -0.34336,0.370218 -0.32885,0.383423 -0.31375,0.396254 -0.29806,0.408709 -0.28179,0.42079 -0.26494,0.432495 -0.2475,0.443826 -0.22947,0.454781 -0.21087,0.465363 -0.19167,0.475567 -0.17189,0.485399 -0.26296,0.817871 -0.21858,0.828717 -0.17448,0.837585 -0.13065,0.844479 -0.0871,0.849396 -0.0438,0.852337 -7e-4,0.853303 0.042,0.852292 0.0845,0.849306 0.12672,0.844344 0.16868,0.837407 0.21036,0.828492 0.25177,0.817603 0.29291,0.804737 0.3338,0.789896 0.3744,0.773078 -0.36109,1.043267 -0.31848,1.079881 -0.27073,1.109261 -0.21784,1.131407 -0.0875,0.571748 -0.0723,0.574573 -0.0565,0.576492 -0.0401,0.577508 -0.0231,0.57762 -0.005,0.576826 0.013,0.57513 0.032,0.572529 0.0516,0.569024 0.0719,0.564614 0.0928,0.5593 0.11441,0.553083 0.13662,0.54596 0.15946,0.537934 0.18295,0.529004 0.20708,0.519169 0.23185,0.508431 0.25727,0.496787 0.28331,0.48424 0.31002,0.470789 0.33735,0.456433 0.36533,0.441173 0.39395,0.42501 0.42321,0.407941 0.31241,0.229723 0.31907,0.212532 0.32538,0.195712 0.33132,0.179263 0.33689,0.163185 0.34212,0.147477 0.34697,0.132142 0.35146,0.117176 0.71494,0.190941 0.72856,0.135534 0.73929,0.08309 0.74709,0.03362 0.75202,-0.01288 0.75403,-0.05642 0.75316,-0.09699 0.74937,-0.134585 0.74269,-0.169215 0.73311,-0.200879 0.72062,-0.229574 0.70525,-0.255301 v 2.739884 h -8.55141 l -0.54188,0.02718 -0.52589,0.07981 -0.50729,0.129817 -0.48606,0.177209 -0.46221,0.221986 -0.43576,0.264147 -0.40667,0.303691 -0.37499,0.34062 -0.34066,0.374933 -0.30374,0.4066304 -0.26419,0.435711 -0.22203,0.462176 -0.17724,0.486025 -0.12984,0.507259 -0.0798,0.525875 -0.0272,0.541877 V 78.554305 l 0.0272,0.541877 0.0798,0.525875 0.12984,0.507258 0.17724,0.486024 0.22203,0.462176 0.26419,0.43571 0.30374,0.406629 0.34066,0.374932 0.37499,0.34062 0.40667,0.30369 0.43576,0.264146 0.46221,0.221985 0.48606,0.177209 0.50729,0.129817 0.52589,0.07981 0.54188,0.02718 h 35.35958 l 0.54189,-0.02718 0.52589,-0.07981 0.50728,-0.129817 0.48606,-0.177209 0.46222,-0.221985 0.43576,-0.264146 0.40667,-0.30369 0.37499,-0.34062 0.34067,-0.374932 0.30373,-0.406629 0.26419,-0.43571 0.22203,-0.462176 0.17724,-0.486024 0.12985,-0.507258 0.0798,-0.525875 0.0272,-0.541877 V -6.7583226 l -0.0272,-0.541877 -0.0798,-0.525875 -0.12985,-0.507259 -0.17724,-0.486025 -0.22203,-0.462176 -0.26419,-0.435711 -0.30373,-0.4066304 -0.34067,-0.374933 -0.37499,-0.34062 -0.40667,-0.303691 -0.43576,-0.264147 -0.46222,-0.221986 -0.48606,-0.177209 -0.50728,-0.129817 -0.52589,-0.07981 -0.54189,-0.02718 h -8.55192 v -4.576463 l 1.80188,-1.824546 1.81467,-1.816509 1.80534,-1.825523 1.77392,-1.851589 0.86826,-0.940898 0.85212,-0.953808 0.83321,-0.96885 0.81153,-0.986023 0.7871,-1.005327 0.75991,-1.026763 0.72994,-1.050331 0.69721,-1.076029 0.33802,-0.648193 0.30857,-0.666175 0.27893,-0.6824 0.24909,-0.696867 0.21905,-0.709575 0.18883,-0.720527 0.15841,-0.72972 0.12779,-0.737156 0.097,-0.742834 0.066,-0.746754 0.0348,-0.748916 0.003,-0.749322 -0.0282,-0.747968 -0.06,-0.744857 -0.092,-0.739989 -0.12412,-0.733362 -0.15649,-0.724979 -0.18906,-0.714836 -0.2218,-0.702937 -0.25475,-0.68928 -0.2879,-0.673865 -0.32123,-0.656691 -0.35476,-0.637762 -0.38848,-0.617072 -0.42241,-0.594627 -0.45652,-0.570423 -0.49082,-0.544461 -0.52533,-0.516742 -0.56003,-0.487265 -0.59491,-0.45603 -0.63001,-0.423037 -0.66528,-0.388287 -0.61795,-0.314033 -0.63125,-0.280941 -0.64306,-0.247931 -0.65339,-0.215002 -0.66222,-0.182154 -0.66957,-0.149389 -0.67544,-0.116705 -0.67982,-0.0841 -0.68271,-0.05158 -0.68412,-0.01914 -0.68403,0.01322 -0.68247,0.04549 -0.67942,0.07769 -0.67488,0.109802 -0.66885,0.141834 -0.66134,0.173784 0.10369,-0.456166 0.075,-0.461293 0.0461,-0.465067 0.0171,-0.467491 -0.01,-0.385953 -0.029,-0.380885 -0.0477,-0.375347 -0.066,-0.369337 -0.0838,-0.362856 -0.10108,-0.355904 -0.11792,-0.348481 -0.1343,-0.340586 -0.15021,-0.33222 -0.16564,-0.323383 -0.1806,-0.314075 -0.19509,-0.304294 -0.20912,-0.294045 -0.22266,-0.283322 -0.23574,-0.272128 -0.24834,-0.260464 -0.26049,-0.248329 -0.27214,-0.235721 -0.28334,-0.222643 -0.29406,-0.209094 -0.30431,-0.195073 -0.31408,-0.18058 -0.3234,-0.165618 -0.33223,-0.150183 -0.34059,-0.134278 -0.34849,-0.117901 -0.35591,-0.101052 -0.36287,-0.08373 -0.36934,-0.06594 -0.37535,-0.04768 -0.38089,-0.02895 -0.38595,-0.0097 v 0"
       id="path914"
       inkscape:connector-curvature="0" />
    <path
       style="display:inline;fill:none;fill-opacity:1;stroke:#000000;stroke-width:0.1;stroke-miterlimit:4;stroke-dasharray:none;stroke-opacity:1"
       d="m 302.16981,-60.838171 0.51125,0.0258 0.49649,0.07576 0.4792,0.123202 0.45941,0.168134 0.43709,0.210552 0.41228,0.250457 0.38494,0.287847 0.35509,0.322724 0.32272,0.355088 0.28785,0.384937 0.25046,0.412274 0.21055,0.437097 0.16813,0.459405 0.1232,0.479202 0.0758,0.496483 0.0258,0.511251 -0.0258,0.511252 -0.0757,0.496484 -0.12321,0.479202 -0.16813,0.459407 -0.21055,0.437098 -0.25046,0.412275 -0.28785,0.384939 -0.32272,0.355089 -0.35509,0.322725 -0.38494,0.287848 -0.41227,0.250456 -0.4371,0.210552 -0.4594,0.168133 -0.4792,0.123202 -0.49649,0.07575 -0.51125,0.0258 -0.51121,-0.02585 -0.49645,-0.0758 -0.47916,-0.123237 -0.45936,-0.16816 -0.43706,-0.210571 -0.41223,-0.250468 -0.3849,-0.287852 -0.35505,-0.322722 -0.32268,-0.355081 -0.28782,-0.384925 -0.25042,-0.412256 -0.21053,-0.437074 -0.16811,-0.45938 -0.12318,-0.479171 -0.0757,-0.49645 -0.0258,-0.511216 0.0258,-0.511216 0.0757,-0.49645 0.12319,-0.479173 0.16811,-0.459381 0.21053,-0.437076 0.25042,-0.412258 0.28782,-0.384927 0.32268,-0.355082 0.35505,-0.322724 0.3849,-0.287852 0.41223,-0.250468 0.43705,-0.21057 0.45937,-0.168158 0.47916,-0.123234 0.49644,-0.0758 0.51121,-0.02584 v 0"
       id="path10147-87-5-7"
       inkscape:connector-curvature="0" />
  </g>
  <g
     inkscape:label="Layer 1"
     inkscape:groupmode="layer"
     id="layer1"
     style="display:none"
     transform="translate(-277.38999,63.387756)">
    <g
       id="g6623"
       transform="matrix(0,-0.35277806,0.35277806,0,277.68445,16.924817)"
       inkscape:export-filename="C:\Users\alexc\oshw_circles.png"
       inkscape:export-xdpi="74.948799"
       inkscape:export-ydpi="74.948799">
      <rect
         height="51.187"
         y="19.483"
         x="107.906"
         gorn="0.1"
         id="board_1_"
         width="72.335999"
         style="fill:#1f1fcd" />
      <rect
         height="43.738998"
         y="23.068001"
         x="112.146"
         gorn="0.2"
         id="sheild"
         width="48.188"
         style="fill:#b3b3b3;stroke:#e3e3e3;stroke-width:1" />
      <circle
         cy="27.545"
         cx="115.753"
         r="1.281"
         gorn="0.3"
         id="dot"
         style="fill:#1f1fcd" />
      <g
         id="g6446"
         transform="translate(89.520575,-66.898955)">
        <g
           id="g6444">
          <g
             id="g6442">
            <g
               gorn="0.4.0.0.0"
               id="logo">
              <path
                 d="m 39.102,112.901 c 0.077,-2.397 0.878,-4.583 2.359,-6.447 0.319,-0.4 0.95,-1.058 1.354,-1.407 0.371,-0.32 0.956,-0.751 1.337,-0.984 1.313,-0.82 2.797,-1.344 4.352,-1.551 0.489,-0.061 1.426,-0.096 1.916,-0.069 2.43,0.136 4.688,1.052 6.524,2.645 0.106,0.097 0.195,0.183 0.196,0.203 10e-4,0.034 -0.481,0.564 -0.515,0.565 -0.011,0 -0.128,-0.098 -0.26,-0.216 -1.247,-1.102 -2.96,-1.928 -4.657,-2.248 -0.797,-0.149 -1.357,-0.191 -2.218,-0.159 -0.694,0.026 -1.055,0.067 -1.678,0.193 -1.945,0.404 -3.776,1.419 -5.151,2.861 -1.604,1.683 -2.558,3.806 -2.746,6.14 -0.038,0.425 -0.018,1.366 0.031,1.801 0.255,2.304 1.244,4.362 2.866,5.981 l 0.241,0.244 -0.265,0.282 -0.268,0.29 -0.114,-0.099 c -0.056,-0.054 -0.22,-0.22 -0.361,-0.369 -1.574,-1.668 -2.565,-3.756 -2.866,-6.052 -0.045,-0.364 -0.085,-1.249 -0.077,-1.604 z m 1.712,-0.608 c 0.041,-0.376 0.113,-0.823 0.189,-1.152 l 0.06,-0.255 0.353,-0.43 c 0.19,-0.239 0.359,-0.443 0.373,-0.457 0.021,-0.021 0.068,-0.002 0.23,0.108 0.391,0.265 0.896,0.458 1.361,0.523 0.28,0.038 0.766,0.021 1.042,-0.037 1.102,-0.231 2.01,-1.056 2.34,-2.112 0.099,-0.311 0.136,-0.572 0.148,-0.96 0.021,-0.602 0.103,-0.959 0.323,-1.452 0.304,-0.66 0.782,-1.183 1.418,-1.542 0.454,-0.259 0.947,-0.408 1.365,-0.422 0.48,-0.013 1.229,0.076 1.513,0.182 1.094,0.405 1.892,1.318 2.167,2.482 0.064,0.283 0.093,1.074 0.056,1.533 -0.191,2.238 -1.062,4.263 -2.536,5.907 -0.733,0.824 -1.651,1.547 -2.643,2.088 -1.036,0.57 -2.189,0.947 -3.425,1.129 -0.428,0.062 -1.49,0.107 -1.9,0.082 -0.566,-0.04 -1.404,-0.153 -1.469,-0.206 -0.083,-0.058 -0.48,-1.04 -0.621,-1.507 l -0.062,-0.223 0.202,-0.615 c 0.117,-0.338 0.217,-0.621 0.224,-0.629 0.007,-0.014 0.103,0.012 0.213,0.041 0.414,0.135 0.99,0.236 1.547,0.291 0.335,0.028 1.255,-0.012 1.614,-0.072 1.139,-0.19 2.133,-0.603 3.059,-1.258 1.717,-1.229 2.786,-3.146 2.954,-5.274 0.059,-0.684 -0.005,-0.913 -0.298,-1.067 -0.091,-0.051 -0.132,-0.057 -0.288,-0.05 -0.211,0.007 -0.285,0.038 -0.416,0.185 -0.111,0.127 -0.142,0.251 -0.153,0.654 -0.068,1.846 -0.996,3.551 -2.515,4.63 -1.729,1.223 -4.015,1.436 -5.938,0.549 -0.431,-0.194 -0.521,-0.252 -0.518,-0.314 0.002,-0.028 0.016,-0.185 0.031,-0.35 z m 1.417,-4.966 c 0.086,-0.617 0.516,-1.117 1.112,-1.289 0.203,-0.063 0.544,-0.081 0.758,-0.034 0.419,0.079 0.847,0.392 1.044,0.767 0.146,0.274 0.187,0.45 0.191,0.778 -0.006,0.231 -0.01,0.301 -0.064,0.459 -0.159,0.478 -0.495,0.83 -0.96,0.991 -0.392,0.143 -0.788,0.124 -1.177,-0.054 -0.396,-0.169 -0.723,-0.54 -0.848,-0.944 -0.045,-0.162 -0.077,-0.522 -0.056,-0.674 z m 1.821,11.797 -0.012,-0.449 0.244,-0.016 c 0.384,-0.021 0.961,-0.091 1.334,-0.146 1.98,-0.33 3.894,-1.227 5.441,-2.559 1.973,-1.695 3.288,-4.037 3.717,-6.619 0.102,-0.612 0.141,-1.09 0.147,-1.834 l 0.008,-0.526 0.728,-0.04 c 0.399,-0.021 0.741,-0.034 0.759,-0.027 0.043,0.018 0.419,0.449 0.615,0.701 0.192,0.252 0.437,0.605 0.596,0.865 l 0.114,0.188 -0.02,0.191 c -0.361,3.76 -2.198,7.179 -5.136,9.558 -1.774,1.436 -3.904,2.422 -6.182,2.858 -0.211,0.042 -0.406,0.076 -0.44,0.077 -0.162,0.006 -1.188,-0.611 -1.702,-1.023 l -0.189,-0.148 -0.01,-0.301 c -0.004,-0.159 -0.01,-0.498 -0.012,-0.75 z m 5.229,2.511 c 0.026,-0.014 0.176,-0.074 0.33,-0.135 0.672,-0.277 1.623,-0.771 2.251,-1.168 1.608,-1.021 3.007,-2.318 4.125,-3.842 0.939,-1.269 1.688,-2.723 2.194,-4.256 0.054,-0.159 0.108,-0.291 0.126,-0.291 0.015,-0.001 0.146,0.035 0.295,0.084 0.311,0.098 0.279,0.044 0.318,0.527 0.092,1.15 -0.095,2.48 -0.509,3.664 -0.956,2.717 -3.229,4.853 -6.022,5.662 -0.776,0.228 -1.354,0.316 -2.246,0.35 -0.566,0.021 -0.669,0.018 -0.69,-0.011 -0.015,-0.019 -0.066,-0.153 -0.12,-0.302 l -0.104,-0.263 z"
                 gorn="0.4.0.0.0.0"
                 id="path3351"
                 inkscape:connector-curvature="0"
                 style="fill:#e3e3e3" />
            </g>
          </g>
        </g>
      </g>
      <g
         gorn="0.5"
         id="text">
        <path
           id="path6448"
           d="m 119.865,25.946 h 3.775 v 2.597 h -0.447 v -2.125 h -1.154 v 1.888 h -0.447 v -1.888 h -1.278 v 2.125 h -0.447 z"
           inkscape:connector-curvature="0"
           style="fill:#e3e3e3" />
        <path
           id="path6450"
           d="m 121.138,28.735 v 0.472 c -0.286,0 -0.515,0.087 -0.685,0.261 -0.174,0.17 -0.262,0.397 -0.262,0.684 0,0.286 0.063,0.513 0.192,0.683 0.129,0.174 0.301,0.261 0.517,0.261 0.194,0 0.35,-0.102 0.465,-0.304 0.084,-0.149 0.15,-0.362 0.199,-0.64 0.065,-0.369 0.188,-0.673 0.367,-0.913 0.207,-0.273 0.461,-0.41 0.764,-0.41 0.307,0 0.553,0.12 0.738,0.36 0.188,0.24 0.279,0.561 0.279,0.963 0,0.401 -0.109,0.722 -0.329,0.962 -0.22,0.24 -0.512,0.36 -0.876,0.36 v -0.472 c 0.235,-0.042 0.428,-0.139 0.571,-0.292 0.142,-0.157 0.211,-0.344 0.211,-0.559 0,-0.257 -0.054,-0.464 -0.161,-0.622 -0.107,-0.153 -0.253,-0.229 -0.435,-0.229 -0.191,0 -0.35,0.089 -0.479,0.267 -0.11,0.149 -0.188,0.344 -0.229,0.584 -0.07,0.41 -0.178,0.73 -0.322,0.962 -0.182,0.302 -0.422,0.454 -0.721,0.454 -0.355,0 -0.64,-0.128 -0.852,-0.385 -0.216,-0.261 -0.322,-0.604 -0.322,-1.031 0,-0.427 0.125,-0.771 0.373,-1.031 0.251,-0.256 0.583,-0.385 0.997,-0.385 z"
           inkscape:connector-curvature="0"
           style="fill:#e3e3e3" />
        <path
           id="path6452"
           d="m 119.865,32.002 h 3.775 v 1.553 c 0,0.36 -0.103,0.648 -0.305,0.863 -0.197,0.215 -0.466,0.323 -0.802,0.323 -0.34,0 -0.61,-0.107 -0.812,-0.323 -0.202,-0.215 -0.305,-0.503 -0.305,-0.863 v -1.081 h -1.553 z m 1.974,0.472 v 1.081 c 0,0.215 0.062,0.389 0.188,0.521 0.13,0.128 0.299,0.192 0.508,0.192 0.205,0 0.37,-0.064 0.496,-0.192 0.125,-0.132 0.188,-0.307 0.188,-0.521 v -1.081 z"
           inkscape:connector-curvature="0"
           style="fill:#e3e3e3" />
        <path
           id="path6454"
           d="m 121.056,35.164 h 0.423 v 1.417 h -0.423 z"
           inkscape:connector-curvature="0"
           style="fill:#e3e3e3" />
        <path
           id="path6456"
           d="m 123.64,36.953 v 0.472 l -2.926,0.801 2.926,0.801 v 0.472 l -2.926,0.801 2.926,0.808 v 0.447 l -3.775,-1.013 V 40.07 l 3.018,-0.807 -3.018,-0.801 V 37.99 Z"
           inkscape:connector-curvature="0"
           style="fill:#e3e3e3" />
        <path
           id="path6458"
           d="m 119.865,41.928 h 3.775 v 1.628 c 0,0.373 -0.103,0.671 -0.306,0.895 -0.198,0.224 -0.467,0.335 -0.802,0.335 -0.208,0 -0.396,-0.054 -0.566,-0.161 -0.17,-0.116 -0.29,-0.267 -0.359,-0.453 -0.096,0.137 -0.211,0.244 -0.349,0.323 -0.145,0.082 -0.295,0.124 -0.451,0.124 l -0.731,0.024 c -0.042,0 -0.098,0.022 -0.168,0.068 l -0.043,0.025 v -0.473 l 0.024,-0.013 c 0.091,-0.054 0.16,-0.08 0.211,-0.08 l 0.708,-0.025 c 0.183,0 0.332,-0.08 0.446,-0.242 0.107,-0.148 0.162,-0.327 0.162,-0.534 V 42.4 h -1.553 z m 1.974,0.472 v 1.155 c 0,0.228 0.062,0.412 0.188,0.553 0.13,0.137 0.299,0.205 0.508,0.205 0.205,0 0.37,-0.068 0.496,-0.205 0.125,-0.141 0.188,-0.325 0.188,-0.553 V 42.4 Z"
           inkscape:connector-curvature="0"
           style="fill:#e3e3e3" />
        <path
           id="path6460"
           d="m 121.752,45.077 c 0.594,0 1.068,0.155 1.43,0.466 0.354,0.311 0.533,0.723 0.533,1.236 0,0.513 -0.179,0.923 -0.533,1.229 -0.36,0.311 -0.836,0.467 -1.43,0.467 -0.584,0 -1.052,-0.156 -1.402,-0.467 -0.354,-0.307 -0.528,-0.716 -0.528,-1.229 0,-0.514 0.176,-0.926 0.528,-1.236 0.351,-0.311 0.818,-0.466 1.402,-0.466 z m 0,0.473 c -0.456,0 -0.82,0.111 -1.099,0.335 -0.273,0.225 -0.41,0.521 -0.41,0.896 0,0.368 0.137,0.665 0.41,0.889 0.277,0.224 0.643,0.335 1.099,0.335 0.469,0 0.841,-0.111 1.118,-0.335 0.281,-0.224 0.422,-0.521 0.422,-0.889 0,-0.373 -0.141,-0.671 -0.422,-0.896 -0.277,-0.224 -0.65,-0.335 -1.118,-0.335 z"
           inkscape:connector-curvature="0"
           style="fill:#e3e3e3" />
        <path
           id="path6462"
           d="m 121.752,48.768 c 0.594,0 1.068,0.154 1.43,0.465 0.354,0.312 0.533,0.724 0.533,1.236 0,0.514 -0.179,0.924 -0.533,1.229 -0.36,0.311 -0.836,0.466 -1.43,0.466 -0.584,0 -1.052,-0.155 -1.402,-0.466 -0.354,-0.308 -0.528,-0.716 -0.528,-1.229 0,-0.513 0.176,-0.926 0.528,-1.236 0.351,-0.311 0.818,-0.465 1.402,-0.465 z m 0,0.471 c -0.456,0 -0.82,0.11 -1.099,0.335 -0.273,0.224 -0.41,0.521 -0.41,0.895 0,0.368 0.137,0.665 0.41,0.889 0.277,0.224 0.643,0.336 1.099,0.336 0.469,0 0.841,-0.112 1.118,-0.336 0.281,-0.224 0.422,-0.521 0.422,-0.889 0,-0.373 -0.141,-0.671 -0.422,-0.895 -0.277,-0.222 -0.65,-0.335 -1.118,-0.335 z"
           inkscape:connector-curvature="0"
           style="fill:#e3e3e3" />
        <path
           id="path6464"
           d="m 119.865,52.637 h 3.775 v 0.59 l -2.976,1.181 2.976,1.181 v 0.59 h -3.775 v -0.472 h 2.832 l -2.832,-1.138 V 54.24 l 2.832,-1.131 h -2.832 z"
           inkscape:connector-curvature="0"
           style="fill:#e3e3e3" />
        <path
           id="path6466"
           d="m 121.056,56.823 h 0.423 v 1.416 h -0.423 z"
           inkscape:connector-curvature="0"
           style="fill:#e3e3e3" />
        <path
           id="path6468"
           d="m 121.044,58.704 v 0.423 c -0.231,0 -0.424,0.096 -0.578,0.285 -0.147,0.188 -0.223,0.406 -0.223,0.658 0,0.24 0.068,0.449 0.205,0.628 0.145,0.182 0.326,0.272 0.546,0.272 0.203,0 0.366,-0.094 0.491,-0.279 0.115,-0.174 0.174,-0.381 0.174,-0.621 v -0.329 h 0.422 v 0.329 c 0,0.19 0.058,0.355 0.168,0.496 0.12,0.146 0.271,0.219 0.447,0.219 0.17,0 0.309,-0.074 0.416,-0.225 0.1,-0.137 0.147,-0.3 0.147,-0.49 0,-0.229 -0.062,-0.424 -0.19,-0.59 -0.137,-0.174 -0.31,-0.262 -0.516,-0.262 v -0.422 c 0.317,0 0.588,0.122 0.807,0.366 0.215,0.239 0.323,0.528 0.323,0.862 0,0.314 -0.092,0.589 -0.273,0.82 -0.187,0.239 -0.425,0.359 -0.714,0.359 -0.17,0 -0.325,-0.035 -0.466,-0.105 -0.149,-0.074 -0.264,-0.18 -0.342,-0.315 -0.051,0.187 -0.161,0.335 -0.335,0.446 -0.162,0.107 -0.349,0.162 -0.561,0.162 -0.335,0 -0.617,-0.133 -0.845,-0.397 -0.219,-0.261 -0.329,-0.569 -0.329,-0.925 0,-0.369 0.116,-0.688 0.348,-0.957 0.239,-0.271 0.531,-0.408 0.878,-0.408 z"
           inkscape:connector-curvature="0"
           style="fill:#e3e3e3" />
        <path
           id="path6470"
           d="m 119.865,61.729 c 0.359,0 0.697,0.136 1.012,0.404 0.263,0.219 0.506,0.525 0.732,0.919 0.154,0.265 0.291,0.46 0.41,0.584 0.183,0.179 0.377,0.267 0.584,0.267 0.194,0 0.355,-0.084 0.483,-0.254 0.116,-0.162 0.175,-0.353 0.175,-0.571 0,-0.228 -0.076,-0.423 -0.229,-0.584 -0.157,-0.165 -0.348,-0.248 -0.571,-0.248 h -0.235 v -0.422 h 0.235 c 0.34,0 0.629,0.124 0.869,0.372 0.236,0.244 0.354,0.537 0.354,0.882 0,0.336 -0.1,0.626 -0.298,0.87 -0.212,0.252 -0.474,0.379 -0.783,0.379 -0.273,0 -0.529,-0.1 -0.771,-0.299 -0.199,-0.166 -0.383,-0.396 -0.553,-0.689 l -0.074,-0.13 c -0.314,-0.556 -0.621,-0.858 -0.92,-0.913 v 2.031 h -0.422 z"
           inkscape:connector-curvature="0"
           style="fill:#e3e3e3" />
      </g>
      <g
         gorn="0.6"
         id="antenna">
        <line
           id="line6473"
           x2="177.867"
           x1="163.664"
           y2="57.073002"
           stroke-miterlimit="10"
           y1="57.073002"
           style="fill:none;stroke:#000000;stroke-width:2;stroke-miterlimit:10" />
        <line
           id="line6475"
           x2="177.867"
           x1="163.664"
           y2="63.073002"
           stroke-miterlimit="10"
           y1="63.073002"
           style="fill:none;stroke:#000000;stroke-width:2;stroke-miterlimit:10" />
        <line
           id="line6477"
           x2="177.867"
           x1="177.867"
           y2="50.493999"
           stroke-miterlimit="10"
           y1="63.964001"
           style="fill:none;stroke:#000000;stroke-width:2;stroke-miterlimit:10" />
        <line
           id="line6479"
           x2="169.784"
           x1="178.826"
           y2="50.493999"
           stroke-miterlimit="10"
           y1="50.493999"
           style="fill:none;stroke:#000000;stroke-width:2;stroke-miterlimit:10" />
        <line
           id="line6481"
           x2="170.765"
           x1="170.765"
           y2="43.812"
           stroke-miterlimit="10"
           y1="50.493999"
           style="fill:none;stroke:#000000;stroke-width:2;stroke-miterlimit:10" />
        <line
           id="line6483"
           x2="178.826"
           x1="169.784"
           y2="43.812"
           stroke-miterlimit="10"
           y1="43.812"
           style="fill:none;stroke:#000000;stroke-width:2;stroke-miterlimit:10" />
        <line
           id="line6485"
           x2="177.867"
           x1="177.867"
           y2="37.327"
           stroke-miterlimit="10"
           y1="43.812"
           style="fill:none;stroke:#000000;stroke-width:2;stroke-miterlimit:10" />
        <line
           id="line6487"
           x2="169.784"
           x1="178.826"
           y2="37.327"
           stroke-miterlimit="10"
           y1="37.327"
           style="fill:none;stroke:#000000;stroke-width:2;stroke-miterlimit:10" />
        <line
           id="line6489"
           x2="170.765"
           x1="170.765"
           y2="30.105"
           stroke-miterlimit="10"
           y1="37.327"
           style="fill:none;stroke:#000000;stroke-width:2;stroke-miterlimit:10" />
        <line
           id="line6491"
           x2="178.826"
           x1="169.784"
           y2="30.105"
           stroke-miterlimit="10"
           y1="30.105"
           style="fill:none;stroke:#000000;stroke-width:2;stroke-miterlimit:10" />
        <line
           id="line6493"
           x2="177.867"
           x1="177.867"
           y2="23.938"
           stroke-miterlimit="10"
           y1="30.105"
           style="fill:none;stroke:#000000;stroke-width:2;stroke-miterlimit:10" />
        <line
           id="line6495"
           x2="166.117"
           x1="178.826"
           y2="23.938"
           stroke-miterlimit="10"
           y1="23.938"
           style="fill:none;stroke:#000000;stroke-width:2;stroke-miterlimit:10" />
        <circle
           cy="57.073002"
           cx="163.664"
           r="0.81199998"
           gorn="0.6.12"
           id="hole_1_"
           style="fill:#febf10" />
        <circle
           cy="63.151001"
           cx="163.664"
           r="0.81199998"
           gorn="0.6.13"
           id="hole"
           style="fill:#febf10" />
      </g>
      <g
         gorn="0.7"
         id="pins">
        <rect
           height="2.1329999"
           y="19.483"
           x="157.80901"
           gorn="0.7.0"
           id="rect513"
           width="2.5599999"
           style="fill:#febf10" />
        <rect
           height="2.1329999"
           y="19.483"
           x="154.19901"
           gorn="0.7.1"
           id="rect515"
           width="2.5569999"
           style="fill:#febf10" />
        <rect
           height="2.1329999"
           y="19.483"
           x="150.588"
           gorn="0.7.2"
           id="rect517"
           width="2.559"
           style="fill:#febf10" />
        <rect
           height="2.1329999"
           y="19.483"
           x="146.978"
           gorn="0.7.3"
           id="rect519"
           width="2.5580001"
           style="fill:#febf10" />
        <rect
           height="2.1329999"
           y="19.483"
           x="143.366"
           gorn="0.7.4"
           id="rect521"
           width="2.556"
           style="fill:#febf10" />
        <rect
           height="2.1329999"
           y="19.483"
           x="139.752"
           gorn="0.7.5"
           id="rect523"
           width="2.5569999"
           style="fill:#febf10" />
        <rect
           height="2.1329999"
           y="19.483"
           x="136.142"
           gorn="0.7.6"
           id="rect525"
           width="2.5569999"
           style="fill:#febf10" />
        <rect
           height="2.1329999"
           y="19.483"
           x="132.53"
           gorn="0.7.7"
           id="rect527"
           width="2.562"
           style="fill:#febf10" />
        <rect
           height="2.1329999"
           y="19.483"
           x="128.916"
           gorn="0.7.8"
           id="rect529"
           width="2.5650001"
           style="fill:#febf10" />
        <rect
           height="2.1329999"
           y="19.483"
           x="125.304"
           gorn="0.7.9"
           id="rect531"
           width="2.563"
           style="fill:#febf10" />
        <rect
           height="2.1329999"
           y="19.483"
           x="121.695"
           gorn="0.7.10"
           id="rect533"
           width="2.562"
           style="fill:#febf10" />
        <rect
           height="2.1329999"
           y="19.483"
           x="118.083"
           gorn="0.7.11"
           id="rect535"
           width="2.562"
           style="fill:#febf10" />
        <rect
           height="2.1329999"
           y="19.483"
           x="114.472"
           gorn="0.7.12"
           id="rect537"
           width="2.562"
           style="fill:#febf10" />
        <rect
           height="2.1329999"
           y="19.483"
           x="110.864"
           gorn="0.7.13"
           id="rect539"
           width="2.5580001"
           style="fill:#febf10" />
        <rect
           height="2.5599999"
           y="27.545"
           x="107.906"
           gorn="0.7.14"
           id="rect541"
           width="2.132"
           style="fill:#febf10" />
        <rect
           height="2.5610001"
           y="31.156"
           x="107.906"
           gorn="0.7.15"
           id="rect543"
           width="2.132"
           style="fill:#febf10" />
        <rect
           height="2.559"
           y="34.769001"
           x="107.906"
           gorn="0.7.16"
           id="rect545"
           width="2.132"
           style="fill:#febf10" />
        <rect
           height="2.5580001"
           y="38.380001"
           x="107.906"
           gorn="0.7.17"
           id="rect547"
           width="2.132"
           style="fill:#febf10" />
        <rect
           height="2.5580001"
           y="41.991001"
           x="107.906"
           gorn="0.7.18"
           id="rect549"
           width="2.132"
           style="fill:#febf10" />
        <rect
           height="2.562"
           y="45.602001"
           x="107.906"
           gorn="0.7.19"
           id="rect551"
           width="2.132"
           style="fill:#febf10" />
        <rect
           height="2.5599999"
           y="49.214001"
           x="107.906"
           gorn="0.7.20"
           id="rect553"
           width="2.132"
           style="fill:#febf10" />
        <rect
           height="2.562"
           y="52.823002"
           x="107.906"
           gorn="0.7.21"
           id="rect555"
           width="2.132"
           style="fill:#febf10" />
        <rect
           height="2.563"
           y="56.433998"
           x="107.906"
           gorn="0.7.22"
           id="rect557"
           width="2.132"
           style="fill:#febf10" />
        <rect
           height="2.563"
           y="60.046001"
           x="107.906"
           gorn="0.7.23"
           id="rect559"
           width="2.132"
           style="fill:#febf10" />
        <rect
           height="2.132"
           y="68.538002"
           x="110.864"
           gorn="0.7.24"
           id="rect561"
           width="2.5580001"
           style="fill:#febf10" />
        <rect
           height="2.132"
           y="68.538002"
           x="114.472"
           gorn="0.7.25"
           id="rect563"
           width="2.562"
           style="fill:#febf10" />
        <rect
           height="2.132"
           y="68.538002"
           x="118.083"
           gorn="0.7.26"
           id="rect565"
           width="2.562"
           style="fill:#febf10" />
        <rect
           height="2.132"
           y="68.538002"
           x="121.695"
           gorn="0.7.27"
           id="rect567"
           width="2.562"
           style="fill:#febf10" />
        <rect
           height="2.132"
           y="68.538002"
           x="125.304"
           gorn="0.7.28"
           id="rect569"
           width="2.563"
           style="fill:#febf10" />
        <rect
           height="2.132"
           y="68.538002"
           x="128.916"
           gorn="0.7.29"
           id="rect571"
           width="2.5650001"
           style="fill:#febf10" />
        <rect
           height="2.132"
           y="68.538002"
           x="132.53"
           gorn="0.7.30"
           id="rect573"
           width="2.562"
           style="fill:#febf10" />
        <rect
           height="2.132"
           y="68.538002"
           x="136.142"
           gorn="0.7.31"
           id="rect575"
           width="2.5569999"
           style="fill:#febf10" />
        <rect
           height="2.132"
           y="68.538002"
           x="139.752"
           gorn="0.7.32"
           id="rect577"
           width="2.5569999"
           style="fill:#febf10" />
        <rect
           height="2.132"
           y="68.538002"
           x="143.366"
           gorn="0.7.33"
           id="rect579"
           width="2.556"
           style="fill:#febf10" />
        <rect
           height="2.132"
           y="68.538002"
           x="146.978"
           gorn="0.7.34"
           id="rect581"
           width="2.5580001"
           style="fill:#febf10" />
        <rect
           height="2.132"
           y="68.538002"
           x="150.588"
           gorn="0.7.35"
           id="rect583"
           width="2.559"
           style="fill:#febf10" />
        <rect
           height="2.132"
           y="68.538002"
           x="154.19901"
           gorn="0.7.36"
           id="rect585"
           width="2.5569999"
           style="fill:#febf10" />
        <rect
           height="2.132"
           y="68.538002"
           x="157.81"
           gorn="0.7.37"
           id="rect587"
           width="2.5599999"
           style="fill:#febf10" />
        <rect
           height="17.061001"
           y="37.348999"
           x="128.81"
           gorn="0.7.38"
           id="rect589"
           display="none"
           width="17.062"
           style="display:none;fill:#febf10" />
      </g>
    </g>
    <g
       id="g6846"
       transform="rotate(90,366.48739,167.00313)"
       inkscape:export-filename="C:\Users\alexc\oshw_circles.png"
       inkscape:export-xdpi="74.948799"
       inkscape:export-ydpi="74.948799">
      <path
         inkscape:connector-curvature="0"
         id="path862-7-1-0-7-7-3"
         d="m 263.1666,237.65828 h -9.42424 c 0,0 -0.0511,-12.5133 0,-12.5133 h 9.37777"
         style="fill:#d09800;fill-opacity:1;stroke:none;stroke-width:0.18161727px;stroke-linecap:butt;stroke-linejoin:miter;stroke-opacity:1"
         sodipodi:nodetypes="ccsc" />
      <g
         id="g5355-0-7-2"
         transform="matrix(-1,0,0,1,297.91518,136.50793)">
        <path
           style="fill:#c9c9c9;fill-opacity:1;stroke:none;stroke-width:0.183;stroke-linecap:butt;stroke-linejoin:miter;stroke-miterlimit:4;stroke-dasharray:none;stroke-opacity:1"
           d="M 96.727698,80.20058 37.71392,80.199888 v 7.239222 h 0.88317 v 14.32419 h -0.91668 v 7.68471 H 96.727698 V 80.20058"
           id="path860-4-2-9"
           inkscape:connector-curvature="0"
           sodipodi:nodetypes="ccccccccc" />
        <path
           style="fill:#e7e7e7;fill-opacity:1;stroke:none;stroke-width:0.18161726px;stroke-linecap:butt;stroke-linejoin:miter;stroke-opacity:1"
           d="M 95.045668,81.661161 H 41.76654 l -0.41431,0.414314 v 4.710698 l 0.3079,0.307903 h 1.250038 l 1.32595,1.325946 v 19.428058 l 0.50902,0.50903 H 95.04283 l 0.412007,-0.41201 V 82.03291 l -0.409169,-0.371749"
           id="path858-51-1-2"
           inkscape:connector-curvature="0"
           sodipodi:nodetypes="ccccccccccccc" />
        <path
           style="fill:#0c0c0c;fill-opacity:1;stroke:none;stroke-width:0.18161726px;stroke-linecap:butt;stroke-linejoin:miter;stroke-opacity:1"
           d="m 94.538505,82.971503 c 0,0 -0.340114,-0.367994 -0.351264,-0.367994 H 42.23258 v 3.621193 h 1.573108 l 1.3682,1.368215 v 19.469103 l 0.35371,0.35371 h 48.690409 l 0.320498,-0.55512 V 82.971503"
           id="path856-72-6-3"
           inkscape:connector-curvature="0"
           sodipodi:nodetypes="csccccccccc" />
        <rect
           transform="scale(-1)"
           style="opacity:1;fill:#ffe1e1;fill-opacity:1;fill-rule:evenodd;stroke:none;stroke-width:0.183;stroke-miterlimit:4;stroke-dasharray:none;stroke-opacity:1"
           id="rect848-1-9-7"
           width="48.307552"
           height="23.725664"
           x="-94.060341"
           y="-106.77053" />
        <circle
           transform="scale(-1)"
           style="opacity:1;fill:#0000ff;fill-opacity:1;fill-rule:evenodd;stroke:none;stroke-width:7.71328545;stroke-miterlimit:4;stroke-dasharray:none;stroke-opacity:1"
           id="path852-3-0-9"
           cx="-44.0854"
           cy="-84.063942"
           r="0.79457557" />
      </g>
      <path
         inkscape:connector-curvature="0"
         id="path862-7-1-0-7-8"
         d="m 261.83248,225.14498 h 9.42424 c 0,0 0.0511,12.5133 0,12.5133 h -9.37777"
         style="fill:#d09800;fill-opacity:1;stroke:#000000;stroke-width:0.18161727px;stroke-linecap:butt;stroke-linejoin:miter;stroke-opacity:1"
         sodipodi:nodetypes="ccsc" />
    </g>
  </g>
  <g
     inkscape:groupmode="layer"
     id="layer5"
     inkscape:label="Fab"
     transform="translate(-277.38999,63.387756)"
     style="display:inline">
    <path
       id="rect15636"
       d="M 287.54658,1.7029886 H 316.7947 V 60.716769 H 287.54658 V 1.7029886"
       style="opacity:1;fill:none;fill-opacity:1;stroke:#000000;stroke-width:0.30000001;stroke-miterlimit:4;stroke-dasharray:none;stroke-opacity:1"
       inkscape:connector-curvature="0" />
    <path
       transform="translate(3.1250001e-6)"
       style="display:inline;fill:none;stroke:#000000;stroke-width:0.26458332px;stroke-linecap:butt;stroke-linejoin:miter;stroke-opacity:1"
       d="M 308.41938,71.772458 H 295.89791"
       id="path1646"
       inkscape:connector-curvature="0" />
  </g>
  <g
     inkscape:groupmode="layer"
     id="layer3"
     inkscape:label="SilkS"
     transform="translate(-277.38999,63.387756)"
     style="display:inline" />
  <g
     inkscape:groupmode="layer"
     id="layer6"
     inkscape:label="Mask"
     transform="translate(-277.38999,63.387756)"
     style="display:inline" />
</svg>
